PathFileType	4	(X/Y/Z)	c:/Users/goper/Files/vsCode/490R/osim_files/C03/C03_fast_04.trc
DataRate	CameraRate	NumFrames	NumMarkers	Units                	OrigDataRate	OrigDataStartFrame	OrigNumFrames
250.00	250.00	4	36	mm	250.0	1767	2826
                Frame#	Time	LPSIS			LASIS			LTH1			LTH2			LTH3			LTH4			LLFE			LMFE			LSH1			LSH2			LSH3			LSH4			LLMAL			LMMAL			LCAL			LMTP5			LTOE			LMTP1			RPSIS			RASIS			RTH1			RTH2			RTH3			RTH4			RLFE			RMFE			RSH1			RSH2			RSH3			RSH4			RLMAL			RMMAL			RCAL			RMTP1			RTOE			RMTP5		
		X1	Y1	Z1	X2	Y2	Z2	X3	Y3	Z3	X4	Y4	Z4	X5	Y5	Z5	X6	Y6	Z6	X7	Y7	Z7	X8	Y8	Z8	X9	Y9	Z9	X10	Y10	Z10	X11	Y11	Z11	X12	Y12	Z12	X13	Y13	Z13	X14	Y14	Z14	X15	Y15	Z15	X16	Y16	Z16	X17	Y17	Z17	X18	Y18	Z18	X19	Y19	Z19	X20	Y20	Z20	X21	Y21	Z21	X22	Y22	Z22	X23	Y23	Z23	X24	Y24	Z24	X25	Y25	Z25	X26	Y26	Z26	X27	Y27	Z27	X28	Y28	Z28	X29	Y29	Z29	X30	Y30	Z30	X31	Y31	Z31	X32	Y32	Z32	X33	Y33	Z33	X34	Y34	Z34	X35	Y35	Z35	X36	Y36	Z36

1767	7.06400	-1146.47412	1047.14258	295.28665	-1326.27258	987.70410	329.15259	-1204.52832	634.37170	357.05295	-1208.24463	573.26544	344.08502	-1280.47046	634.70276	353.37567	-1275.10718	574.55872	340.88425	-1227.42041	488.81503	325.96661	-1226.95874	492.19312	213.87292	-1148.13367	311.84021	319.61395	-1149.83508	265.69760	311.77292	-1208.60071	310.83661	324.62943	-1201.60364	264.00122	316.79919	-1179.57703	105.63396	280.00687	-1196.24548	118.61056	199.72438	-1109.17432	69.04209	247.05168	-1313.11267	50.19458	289.28699	-1341.13062	65.87919	233.44510	-1314.99817	54.59485	195.29375	-1148.48474	1038.78577	182.15282	-1319.71680	996.40808	125.59514	-1327.36902	622.71088	107.36845	-1351.62695	566.91345	121.02047	-1379.93250	644.14075	75.38222	-1411.86243	591.21503	82.15296	-1424.89746	521.79480	95.43792	-1437.46948	538.43768	209.84778	-1254.79956	410.01584	105.29430	-1232.67371	367.55371	106.20702	-1301.25342	374.83353	82.06761	-1272.83484	341.82587	85.65536	-1185.49915	214.24568	109.92808	-1212.70349	197.87337	184.66707	-1114.07153	216.60710	159.40105	-1270.61780	81.20298	162.50616	-1297.99048	86.66772	120.31177	-1231.37354	98.18220	64.13031
1768	7.06800	-1151.46350	1047.14673	294.65262	-1330.12781	987.56439	329.22714	-1206.84375	634.72662	356.65167	-1210.23950	573.58966	343.77142	-1282.90564	634.51947	353.07416	-1277.00830	574.47589	340.70181	-1228.85535	488.93628	325.71796	-1228.41797	492.21613	213.61513	-1148.85950	312.23953	319.21857	-1150.41174	266.10733	311.46072	-1209.37195	311.00424	324.34711	-1202.13074	264.22073	316.55963	-1179.65942	105.85394	279.71606	-1197.87720	119.18021	199.72733	-1109.26953	69.17743	246.84979	-1313.15393	50.16082	289.28305	-1341.15771	65.69547	233.46815	-1315.14087	54.51744	195.26941	-1154.24817	1039.01843	181.56508	-1325.77283	996.84247	126.09560	-1335.19189	623.78479	106.90818	-1359.83081	568.16174	120.68832	-1388.06396	645.70197	75.62786	-1420.55859	593.19098	82.66710	-1433.60181	523.54547	96.06507	-1445.20996	540.20813	210.24432	-1266.19873	407.71970	105.53549	-1244.18872	365.28253	105.97131	-1312.92871	373.77759	82.11078	-1285.31750	340.26666	85.65652	-1200.42603	210.74989	109.53244	-1228.02917	194.62849	183.99782	-1129.21838	210.87625	159.07899	-1289.22693	79.55170	161.44229	-1316.50012	85.96667	119.16409	-1249.55444	96.04504	63.11501
1769	7.07200	-1156.60901	1047.13806	294.06186	-1334.53320	987.35510	329.73724	-1209.34326	634.92206	356.47098	-1212.31360	573.92871	343.51950	-1285.29785	634.37415	352.73923	-1278.49219	574.43658	340.14536	-1230.05200	489.04816	325.50723	-1229.83032	492.24817	213.28497	-1149.64441	312.64160	318.88522	-1151.02356	266.43668	311.04224	-1210.07959	311.18445	324.11963	-1202.72937	264.40469	316.28174	-1179.78406	104.45678	276.71732	-1197.48376	119.00147	199.36873	-1109.37451	69.30760	246.59383	-1313.09009	49.92752	289.06311	-1341.24658	65.53849	233.47522	-1315.21411	54.44355	195.25909	-1160.01758	1039.22803	180.89558	-1331.75769	997.20117	126.61372	-1343.08630	624.76428	106.41003	-1367.87122	569.25983	120.31099	-1396.04724	647.12762	75.82739	-1428.53455	594.64349	83.01750	-1442.12366	525.09631	96.59644	-1452.83508	541.78772	210.74190	-1277.02637	405.50183	105.54370	-1256.55017	362.41208	106.05897	-1324.76086	372.70602	82.24698	-1297.96338	338.53589	85.61948	-1215.71265	207.18547	109.17043	-1243.99084	191.33951	183.67001	-1144.58850	205.07410	158.80641	-1307.54065	77.81847	160.19762	-1335.06116	85.41317	118.11346	-1267.85925	93.92612	62.17180
1770	7.07600	-1161.81946	1047.06726	293.45120	-1339.48315	987.08960	330.13617	-1211.77710	635.37628	356.03656	-1214.32617	574.22845	343.18756	-1287.68750	634.15015	352.32336	-1280.47314	574.28040	339.85474	-1231.43286	489.18381	325.18063	-1231.41785	492.35181	212.94943	-1150.50549	313.04242	318.51254	-1151.73779	266.81961	310.65042	-1210.86511	311.38678	323.78796	-1203.47473	264.63773	315.93271	-1180.03650	104.65427	276.37173	-1197.78345	119.18340	199.06090	-1109.45447	69.48782	246.33362	-1313.13220	49.89573	288.97864	-1341.33704	65.41114	233.48607	-1314.11804	53.48338	194.67731	-1165.71875	1039.41895	180.30809	-1337.77307	997.49219	127.09985	-1350.71863	625.64008	106.00239	-1375.80432	570.35852	119.91985	-1403.92786	648.51477	76.05231	-1436.68506	596.24048	83.40476	-1450.58850	526.62347	97.14329	-1460.40674	543.38062	211.23180	-1287.89624	403.12997	105.54510	-1268.42334	359.69803	105.97792	-1336.32373	371.51691	82.28452	-1310.42944	336.69913	85.60555	-1231.20020	203.47234	108.88361	-1259.87378	188.04692	183.23927	-1160.12610	199.21880	158.51338	-1325.98682	76.32994	159.15837	-1353.63977	84.79394	117.17278	-1286.27136	91.87157	61.30596
